<svg width="49" height="48" viewBox="0 0 49 48" fill="none" xmlns="http://www.w3.org/2000/svg">
<path opacity="0.25" d="M24.5 12H28.25M24.5 20H28.25M9.5 28H28.25M9.5 36H28.25M35.75 12H44.1875C45.74 12 47 13.344 47 15V40C47 41.5913 46.4074 43.1174 45.3525 44.2426C44.2976 45.3679 42.8668 46 41.375 46M35.75 12V40C35.75 41.5913 36.3426 43.1174 37.3975 44.2426C38.4524 45.3679 39.8832 46 41.375 46M35.75 12V5C35.75 3.344 34.49 2 32.9375 2H4.8125C3.26 2 2 3.344 2 5V40C2 41.5913 2.59263 43.1174 3.64752 44.2426C4.70242 45.3679 6.13316 46 7.625 46H41.375M9.5 12H17V20H9.5V12Z" stroke="black" stroke-width="3" stroke-linecap="round" stroke-linejoin="round"/>
</svg>
