<svg width="20" height="20" viewBox="0 0 20 20" fill="none" xmlns="http://www.w3.org/2000/svg">
<g opacity="0.5" clip-path="url(#clip0_104_141)">
<path d="M15.1824 0.182732C15.2405 0.124528 15.3095 0.0783496 15.3854 0.0468416C15.4613 0.0153335 15.5427 -0.00088501 15.6249 -0.00088501C15.7072 -0.00088501 15.7886 0.0153335 15.8645 0.0468416C15.9404 0.0783496 16.0094 0.124528 16.0674 0.182732L19.8174 3.93273C19.8756 3.99079 19.9218 4.05976 19.9533 4.13569C19.9848 4.21162 20.0011 4.29302 20.0011 4.37523C20.0011 4.45744 19.9848 4.53884 19.9533 4.61477C19.9218 4.69071 19.8756 4.75968 19.8174 4.81773L7.31744 17.3177C7.25746 17.3773 7.18602 17.4241 7.10744 17.4552L0.857441 19.9552C0.743861 20.0007 0.619435 20.0118 0.49959 19.9872C0.379745 19.9627 0.26975 19.9034 0.183242 19.8169C0.0967335 19.7304 0.0375166 19.6204 0.0129323 19.5006C-0.011652 19.3807 -0.000522637 19.2563 0.0449407 19.1427L2.54494 12.8927C2.5761 12.8142 2.62288 12.7427 2.68244 12.6827L15.1824 0.182732ZM14.0087 3.12523L16.8749 5.99148L18.4912 4.37523L15.6249 1.50898L14.0087 3.12523ZM15.9912 6.87523L13.1249 4.00898L4.99994 12.134V12.5002H5.62494C5.7907 12.5002 5.94967 12.5661 6.06688 12.6833C6.18409 12.8005 6.24994 12.9595 6.24994 13.1252V13.7502H6.87494C7.0407 13.7502 7.19967 13.8161 7.31688 13.9333C7.43409 14.0505 7.49994 14.2095 7.49994 14.3752V15.0002H7.86619L15.9912 6.87523ZM3.78994 13.344L3.65744 13.4765L1.74744 18.2527L6.52369 16.3427L6.65619 16.2102C6.53696 16.1657 6.43418 16.0858 6.36158 15.9813C6.28899 15.8767 6.25004 15.7525 6.24994 15.6252V15.0002H5.62494C5.45918 15.0002 5.30021 14.9344 5.183 14.8172C5.06579 14.7 4.99994 14.541 4.99994 14.3752V13.7502H4.37494C4.24767 13.7501 4.12345 13.7112 4.01891 13.6386C3.91437 13.566 3.83449 13.4632 3.78994 13.344Z" fill="black"/>
</g>
<defs>
<clipPath id="clip0_104_141">
<rect width="20" height="20" fill="white"/>
</clipPath>
</defs>
</svg>
