<svg width="42" height="39" viewBox="0 0 42 39" fill="none" xmlns="http://www.w3.org/2000/svg">
<path d="M31.4685 30.4281C30.2457 28.9248 28.6637 27.7057 26.8471 26.8667C25.0305 26.0278 23.0289 25.592 21 25.5938C18.9712 25.592 16.9696 26.0278 15.153 26.8667C13.3363 27.7057 11.7543 28.9248 10.5315 30.4281M31.4668 30.4281C33.8529 28.4573 35.5375 25.8595 36.2971 22.9793C37.0567 20.099 36.8555 17.0724 35.7201 14.3008C34.5847 11.5292 32.5688 9.14352 29.9397 7.46022C27.3106 5.77691 24.1926 4.87549 20.9991 4.87549C17.8057 4.87549 14.6877 5.77691 12.0586 7.46022C9.4295 9.14352 7.4136 11.5292 6.27821 14.3008C5.14282 17.0724 4.94159 20.099 5.70121 22.9793C6.46082 25.8595 8.1454 28.4573 10.5315 30.4281M31.4668 30.4281C28.5863 32.8139 24.8599 34.1301 21 34.125C17.1396 34.1305 13.4124 32.8143 10.5315 30.4281M26.25 15.8438C26.25 17.1367 25.6969 18.3767 24.7123 19.2909C23.7278 20.2051 22.3924 20.7188 21 20.7188C19.6076 20.7188 18.2723 20.2051 17.2877 19.2909C16.3031 18.3767 15.75 17.1367 15.75 15.8438C15.75 14.5508 16.3031 13.3109 17.2877 12.3966C18.2723 11.4824 19.6076 10.9688 21 10.9688C22.3924 10.9688 23.7278 11.4824 24.7123 12.3966C25.6969 13.3109 26.25 14.5508 26.25 15.8438V15.8438Z" stroke="black" stroke-width="1.5" stroke-linecap="round" stroke-linejoin="round"/>
</svg>
