<svg width="42" height="41" viewBox="0 0 42 41" fill="none" xmlns="http://www.w3.org/2000/svg">
<path d="M15.75 6.40625H12.096C11.2542 6.4064 10.4345 6.66993 9.75738 7.15817C9.08022 7.64641 8.58119 8.33366 8.3335 9.11908L4.1125 22.5107C3.99689 22.8765 3.93791 23.2571 3.9375 23.6399V30.75C3.9375 31.7694 4.35234 32.7471 5.09077 33.4679C5.82919 34.1888 6.83071 34.5938 7.875 34.5938H34.125C35.1693 34.5938 36.1708 34.1888 36.9092 33.4679C37.6477 32.7471 38.0625 31.7694 38.0625 30.75V23.6399C38.0625 23.2573 38.003 22.8763 37.8875 22.5107L33.67 9.11908C33.4223 8.33366 32.9233 7.64641 32.2461 7.15817C31.569 6.66993 30.7493 6.4064 29.9075 6.40625H26.25M3.9375 23.0625H10.6925C11.4236 23.0627 12.1403 23.2616 12.7622 23.6369C13.3841 24.0123 13.8866 24.5492 14.2135 25.1877L14.6615 26.0623C14.9885 26.701 15.4913 27.2381 16.1136 27.6135C16.7358 27.9889 17.4528 28.1876 18.1842 28.1875H23.8158C24.5472 28.1876 25.2642 27.9889 25.8864 27.6135C26.5087 27.2381 27.0115 26.701 27.3385 26.0623L27.7865 25.1877C28.1135 24.549 28.6163 24.0119 29.2386 23.6365C29.8608 23.2611 30.5778 23.0624 31.3093 23.0625H38.0625M21 5.125V19.2188M21 19.2188L15.75 14.0938M21 19.2188L26.25 14.0938" stroke="black" stroke-width="1.5" stroke-linecap="round" stroke-linejoin="round"/>
</svg>
